<svg width="80.000000" height="80.000000" viewBox="0 0 80 80" fill="none" xmlns="http://www.w3.org/2000/svg" xmlns:xlink="http://www.w3.org/1999/xlink">
	<desc>
			Created with Pixso.
	</desc>
	<defs>
		<clipPath id="clip3_824">
			<rect rx="0.000000" width="79.000000" height="79.000000" transform="translate(0.500000 0.500000)" fill="white" fill-opacity="0"/>
		</clipPath>
	</defs>
	<g clip-path="url(#clip3_824)">
		<path d="M68.03 73.52C68.06 73.76 68.44 73.76 68.41 73.52C68.3 72.46 68.95 71.47 69.96 71.15C70.76 70.9 71.56 71.2 71.8 72.04C71.9 72.42 71.91 72.77 71.8 73.11C71.8 73.11 71.8 73.11 71.8 73.11C71.45 73.1 71.11 73.2 70.8 73.34C70.55 73.44 70.22 73.61 70.16 73.9C70.11 74.23 70.49 74.46 70.77 74.5C71.12 74.55 71.44 74.35 71.67 74.11C71.83 73.93 71.96 73.73 72.06 73.52C72.11 73.53 72.16 73.53 72.21 73.55C72.91 73.73 73.5 74.31 73.6 75.04C73.68 75.68 73.18 76.07 72.6 76.18C72.44 75.97 72.25 75.79 72.04 75.66C71.6 75.41 71.13 75.52 70.95 76.01C70.93 76.07 70.95 76.16 71 76.2C71.39 76.52 71.9 76.63 72.4 76.59C72.56 76.87 72.64 77.19 72.59 77.5C72.51 78.03 72.05 78.53 71.53 78.65C70.47 78.88 69.44 77.75 69.13 76.85C69.05 76.62 68.68 76.72 68.76 76.95C69.02 77.7 69.57 78.37 70.25 78.75C70.83 79.08 71.54 79.18 72.12 78.81C72.71 78.43 73.07 77.75 72.96 77.05C72.93 76.87 72.87 76.69 72.79 76.52C72.91 76.49 73.03 76.45 73.14 76.4C73.92 76.04 74.16 75.25 73.83 74.48C73.55 73.8 72.91 73.3 72.19 73.16C72.26 72.84 72.28 72.51 72.22 72.17C72.12 71.63 71.83 71.11 71.32 70.86C70.86 70.63 70.31 70.64 69.83 70.8C68.68 71.18 67.91 72.3 68.03 73.52ZM72.13 76.22C71.85 76.21 71.59 76.14 71.38 76.01C71.57 75.76 71.94 76.03 72.13 76.22ZM71.64 73.5C71.62 73.52 71.61 73.55 71.59 73.57C71.45 73.8 71.24 74.08 70.96 74.12C70.82 74.14 70.7 74.1 70.59 74.02C70.51 73.96 70.53 73.96 70.6 73.89C70.76 73.71 71.07 73.62 71.29 73.56C71.41 73.53 71.52 73.51 71.64 73.5Z" fill="#000000" fill-opacity="1.000000" fill-rule="nonzero"/>
		<path d="M67.74 74.47L67.74 74.47L61.05 74.46C60.93 74.45 60.84 74.36 60.84 74.25C60.84 74.14 60.94 74.05 61.05 74.05L61.05 74.05L67.74 74.06C67.85 74.06 67.94 74.15 67.94 74.26C67.94 74.38 67.85 74.47 67.74 74.47Z" fill="#000000" fill-opacity="1.000000" fill-rule="nonzero"/>
		<path d="M67.63 76.27L67.62 76.27L63.43 76.26C63.32 76.26 63.23 76.17 63.23 76.06C63.23 75.94 63.32 75.85 63.43 75.85L63.43 75.85L67.63 75.86C67.74 75.86 67.83 75.95 67.83 76.06C67.83 76.18 67.74 76.27 67.63 76.27Z" fill="#000000" fill-opacity="1.000000" fill-rule="nonzero"/>
		<path d="M24.18 49.5C17.14 57.05 13.79 67.09 14.97 77.38C15.22 79.53 18.6 79.35 18.35 77.18C17.27 67.73 20.24 58.69 26.71 51.75C28.2 50.16 25.67 47.91 24.18 49.5Z" fill="#000000" fill-opacity="1.000000" fill-rule="nonzero"/>
		<path d="M18.46 74.95C18.46 74.95 20.62 73.2 16.31 73.06C11.69 72.91 14.6 74.86 14.6 74.86L13.9 75.24C13.9 75.24 8.94 71.29 7.06 75.17C5.17 79.05 10.54 79.76 13.83 79.84C17.11 79.92 20.64 80.69 18.46 74.95Z" fill="#FF558B" fill-opacity="1.000000" fill-rule="nonzero"/>
		<path d="M16.14 80C15.71 80 15.25 79.97 14.79 79.95C14.47 79.94 14.15 79.92 13.82 79.92C11.22 79.85 7.91 79.43 6.89 77.76C6.46 77.04 6.49 76.16 6.99 75.14C7.44 74.22 8.09 73.65 8.94 73.46C10.09 73.2 11.39 73.68 12.28 74.14C13.11 74.55 13.74 75.02 13.91 75.15L14.45 74.85C14.18 74.65 13.49 74.08 13.64 73.6C13.79 73.13 14.66 72.93 16.31 72.98C17.95 73.04 18.87 73.33 19.05 73.86C19.21 74.34 18.71 74.83 18.55 74.97C19.31 77 19.41 78.36 18.85 79.13C18.34 79.84 17.32 80 16.14 80ZM9.63 73.54C9.41 73.54 9.19 73.57 8.97 73.61C8.18 73.8 7.55 74.33 7.13 75.21C6.66 76.18 6.62 77.01 7.03 77.68C7.47 78.4 8.94 79.64 13.83 79.76C14.15 79.77 14.48 79.78 14.8 79.8C16.48 79.87 18.07 79.94 18.73 79.04C19.26 78.3 19.15 76.97 18.39 74.97L18.37 74.92L18.41 74.89C18.42 74.88 19.05 74.36 18.9 73.91C18.79 73.59 18.26 73.2 16.31 73.14C14.38 73.08 13.87 73.38 13.79 73.64C13.66 74.03 14.36 74.6 14.64 74.79L14.75 74.86L13.89 75.34L13.85 75.3C13.83 75.28 11.62 73.54 9.63 73.54Z" fill="#000000" fill-opacity="1.000000" fill-rule="nonzero"/>
		<path d="M17.01 75.31C16.87 75.31 16.73 75.3 16.57 75.29L16.59 75.13C17.7 75.24 18.42 74.88 18.42 74.88L18.49 75.02C18.47 75.03 17.91 75.31 17.01 75.31Z" fill="#000000" fill-opacity="1.000000" fill-rule="nonzero"/>
		<path d="M15.34 75.17C15.26 75.17 15 75.15 14.56 74.93L14.63 74.79C15.1 75.02 15.34 75.01 15.35 75.01L15.36 75.16C15.36 75.16 15.35 75.17 15.34 75.17Z" fill="#000000" fill-opacity="1.000000" fill-rule="nonzero"/>
		<path d="M13.91 75.24C14.07 75.31 14.21 75.41 14.35 75.51C14.49 75.62 14.62 75.73 14.74 75.85C14.87 75.97 14.99 76.09 15.1 76.22C15.21 76.35 15.31 76.49 15.4 76.65L15.39 76.66L14.64 75.96L13.9 75.25L13.91 75.24Z" fill="#000000" fill-opacity="1.000000" fill-rule="nonzero"/>
		<path d="M13.91 75.24C13.97 75.38 14.01 75.52 14.04 75.66C14.07 75.8 14.09 75.94 14.1 76.08C14.11 76.23 14.11 76.37 14.1 76.51C14.09 76.65 14.07 76.8 14.03 76.94L14.01 76.94L13.95 76.09L13.89 75.24L13.91 75.24Z" fill="#000000" fill-opacity="1.000000" fill-rule="nonzero"/>
		<path d="M9.48 74.17C9.33 74.25 9.18 74.32 9.05 74.42C8.98 74.46 8.91 74.51 8.85 74.56C8.78 74.61 8.72 74.66 8.66 74.71C8.42 74.92 8.2 75.16 8.06 75.45C7.9 75.72 7.8 76.02 7.75 76.34L7.73 76.46L7.72 76.58L7.7 76.83C7.69 76.99 7.71 77.15 7.7 77.33L7.69 77.33C7.67 77.16 7.63 77 7.62 76.83L7.62 76.58L7.62 76.45L7.63 76.33L7.66 76.08L7.73 75.83C7.75 75.75 7.78 75.67 7.81 75.6C7.85 75.52 7.88 75.44 7.92 75.37C8.09 75.08 8.32 74.82 8.58 74.62C8.85 74.41 9.15 74.25 9.47 74.15L9.48 74.17Z" fill="#FFFFFF" fill-opacity="1.000000" fill-rule="nonzero"/>
		<path d="M53.41 68.3C50.8 69.22 48.22 70.21 45.6 71.08C43.12 71.89 40.21 72.71 37.58 72.14C31.1 70.73 36.58 62.96 38.55 59.82C39.7 57.97 36.78 56.27 35.62 58.12C32.84 62.57 27.77 70.62 34.2 74.43C40.24 78.01 48.48 73.61 54.31 71.57C56.35 70.85 55.47 67.58 53.41 68.3Z" fill="#000000" fill-opacity="1.000000" fill-rule="nonzero"/>
		<path d="M49.97 69.08C49.97 69.08 47.54 67.75 49.04 71.79C50.65 76.12 51.35 72.69 51.35 72.69L51.97 73.19C51.97 73.19 50.2 79.27 54.5 79.55C58.8 79.82 57.43 74.59 56.26 71.52C55.09 68.44 54.47 64.89 49.97 69.08Z" fill="#FF558B" fill-opacity="1.000000" fill-rule="nonzero"/>
		<path d="M54.81 79.64C54.71 79.64 54.6 79.63 54.49 79.62C53.47 79.56 52.7 79.17 52.21 78.45C51.53 77.49 51.48 76.1 51.56 75.1C51.64 74.18 51.83 73.42 51.89 73.22L51.4 72.83C51.32 73.16 51.05 74.02 50.55 74.05C50.06 74.09 49.54 73.36 48.97 71.81C48.4 70.28 48.32 69.31 48.75 68.95C49.13 68.62 49.77 68.9 49.96 68.99C51.55 67.52 52.77 66.91 53.69 67.13C54.87 67.42 55.42 68.95 56 70.58C56.11 70.88 56.21 71.19 56.33 71.49C57.25 73.92 58.11 77.15 56.96 78.72C56.51 79.33 55.79 79.64 54.81 79.64ZM51.3 72.55L52.06 73.16L52.05 73.21C52.04 73.24 51.08 76.58 52.33 78.36C52.8 79.04 53.53 79.41 54.5 79.47C55.58 79.54 56.37 79.25 56.83 78.63C57.33 77.94 57.92 76.11 56.18 71.55C56.07 71.24 55.96 70.94 55.85 70.63C55.28 69.05 54.75 67.55 53.66 67.29C52.78 67.07 51.59 67.68 50.03 69.14L49.99 69.18L49.94 69.15C49.93 69.15 49.21 68.76 48.85 69.07C48.6 69.29 48.44 69.93 49.12 71.76C49.79 73.57 50.26 73.92 50.54 73.9C50.94 73.87 51.21 73.01 51.28 72.68L51.3 72.55Z" fill="#000000" fill-opacity="1.000000" fill-rule="nonzero"/>
		<path d="M50.85 70.74C50.53 69.67 49.93 69.15 49.92 69.14L50.02 69.02C50.05 69.05 50.67 69.58 51 70.7L50.85 70.74Z" fill="#000000" fill-opacity="1.000000" fill-rule="nonzero"/>
		<path d="M51.43 72.7L51.27 72.69C51.32 72.16 51.21 71.94 51.21 71.94L51.35 71.87C51.35 71.88 51.48 72.12 51.43 72.7Z" fill="#000000" fill-opacity="1.000000" fill-rule="nonzero"/>
		<path d="M51.97 73.19C51.98 73.01 52.01 72.84 52.06 72.67C52.1 72.5 52.15 72.34 52.21 72.18C52.28 72.02 52.34 71.86 52.42 71.71C52.5 71.56 52.59 71.41 52.71 71.27L52.72 71.27L52.36 72.23L51.98 73.19L51.97 73.19Z" fill="#000000" fill-opacity="1.000000" fill-rule="nonzero"/>
		<path d="M51.97 73.18C52.07 73.07 52.19 72.98 52.31 72.9C52.42 72.82 52.55 72.75 52.68 72.68C52.8 72.62 52.93 72.57 53.07 72.52C53.21 72.48 53.35 72.44 53.5 72.43L53.51 72.44L52.75 72.82L51.98 73.2L51.97 73.18Z" fill="#000000" fill-opacity="1.000000" fill-rule="nonzero"/>
		<path d="M52.66 77.69C52.78 77.8 52.91 77.91 53.05 77.99C53.12 78.04 53.19 78.08 53.26 78.13C53.33 78.17 53.4 78.2 53.47 78.24C53.76 78.39 54.06 78.49 54.37 78.52C54.68 78.56 55.01 78.55 55.32 78.46L55.44 78.44L55.55 78.4L55.78 78.32C55.94 78.27 56.09 78.19 56.25 78.14L56.26 78.15C56.11 78.23 55.97 78.32 55.82 78.4L55.59 78.5L55.47 78.55L55.35 78.58L55.11 78.64L54.86 78.68C54.78 78.69 54.69 78.69 54.61 78.69C54.52 78.69 54.44 78.69 54.36 78.67C54.02 78.63 53.7 78.52 53.41 78.35C53.12 78.18 52.86 77.96 52.64 77.7L52.66 77.69Z" fill="#FFFFFF" fill-opacity="1.000000" fill-rule="nonzero"/>
		<path d="M71.45 32.64C71.37 32.22 70.74 32.43 70.82 32.85C71.12 34.41 71.36 36 71.24 37.59C71.12 39.08 70.31 40.31 69.38 41.43C68.47 42.51 67.57 43.55 66.98 44.85C66.42 46.08 66.21 47.52 66.37 48.86C66.55 50.35 67.09 51.78 67.47 53.23C67.88 54.76 67.98 56.24 67.73 57.81C67.52 59.12 66.98 60.33 65.93 61.18C64.9 62.02 63.65 62.37 62.34 62.06C60.83 61.71 59.49 60.74 58.37 59.69C57.75 59.1 57.21 58.43 56.73 57.72C56.26 57.01 55.95 56.23 55.64 55.44C55.48 55.05 54.84 55.25 55 55.65C55.29 56.37 55.56 57.09 55.96 57.75C56.36 58.41 56.84 59.03 57.35 59.6C58.33 60.67 59.54 61.64 60.88 62.25C62.12 62.82 63.53 63.08 64.84 62.58C66 62.13 66.97 61.3 67.6 60.24C68.35 58.98 68.55 57.4 68.56 55.96C68.56 54.32 68.03 52.76 67.59 51.21C67.14 49.6 66.81 48.06 67.17 46.4C67.5 44.87 68.42 43.55 69.43 42.39C70.49 41.18 71.6 39.81 71.84 38.17C72.11 36.33 71.81 34.45 71.45 32.64Z" fill="#000000" fill-opacity="1.000000" fill-rule="nonzero"/>
		<path d="M70.64 29.41L70.7 31.18L70.19 31.2L70.14 29.42C70.14 29.39 70.16 29.36 70.2 29.36L70.58 29.35C70.61 29.35 70.64 29.37 70.64 29.41Z" fill="#FFD200" fill-opacity="1.000000" fill-rule="nonzero"/>
		<path d="M70.11 31.28L70.06 29.43C70.06 29.35 70.12 29.28 70.19 29.28L70.58 29.27C70.65 29.27 70.72 29.33 70.72 29.41L70.78 31.26L70.11 31.28ZM70.21 29.44L70.26 31.12L70.61 31.11L70.57 29.43L70.21 29.44Z" fill="#000000" fill-opacity="1.000000" fill-rule="nonzero"/>
		<path d="M71.92 29.37L71.97 31.15L71.46 31.16L71.41 29.39C71.41 29.35 71.44 29.32 71.47 29.32L71.85 29.31C71.89 29.31 71.92 29.34 71.92 29.37Z" fill="#FFD200" fill-opacity="1.000000" fill-rule="nonzero"/>
		<path d="M71.39 31.24L71.33 29.39C71.33 29.35 71.35 29.32 71.37 29.29C71.4 29.26 71.43 29.25 71.47 29.24L71.85 29.23C71.93 29.23 71.99 29.29 72 29.37L72 29.37L72.05 31.22L71.39 31.24ZM71.49 29.4L71.54 31.08L71.89 31.07L71.84 29.39L71.49 29.4Z" fill="#000000" fill-opacity="1.000000" fill-rule="nonzero"/>
		<path d="M69.65 33.29L69.58 30.69L72.42 30.61L72.5 33.21L69.65 33.29Z" fill="#000000" fill-opacity="1.000000" fill-rule="evenodd"/>
		<path d="M69.58 33.37L69.5 30.62L72.5 30.53L72.58 33.29L69.58 33.37ZM69.66 30.77L69.73 33.21L72.42 33.14L72.35 30.69L69.66 30.77Z" fill="#000000" fill-opacity="1.000000" fill-rule="nonzero"/>
		<path d="M66.77 45.5C66.8 46.25 66.22 46.89 65.47 46.93C65.44 46.93 65.4 46.93 65.37 46.93C65.37 46.93 65.37 46.93 65.37 46.93C65.16 46.93 64.97 46.88 64.79 46.79C64.7 46.74 64.6 46.68 64.52 46.61C64.24 46.37 64.05 46.03 64.03 45.63C64.02 45.29 64.13 44.96 64.34 44.71C64.57 44.42 64.93 44.22 65.33 44.2C66.09 44.16 66.73 44.74 66.77 45.5Z" fill="#FFD200" fill-opacity="1.000000" fill-rule="nonzero"/>
		<path d="M65.4 47.01C65.39 47.01 65.38 47.01 65.37 47.01C65.15 47 64.95 46.95 64.76 46.86C64.66 46.81 64.56 46.75 64.47 46.67C64.16 46.41 63.98 46.04 63.96 45.64C63.94 45.28 64.05 44.94 64.28 44.66C64.53 44.34 64.91 44.14 65.33 44.12C65.72 44.1 66.08 44.24 66.37 44.49C66.66 44.75 66.82 45.11 66.84 45.49C66.88 46.29 66.27 46.97 65.47 47.01C65.45 47.01 65.42 47.01 65.4 47.01ZM65.4 44.28C65.38 44.28 65.36 44.28 65.34 44.28C64.97 44.3 64.62 44.47 64.4 44.76C64.2 45.01 64.1 45.31 64.11 45.63C64.13 45.99 64.3 46.32 64.57 46.55C64.65 46.62 64.74 46.68 64.83 46.72C65 46.8 65.18 46.85 65.37 46.86C65.4 46.86 65.44 46.86 65.47 46.85C66.18 46.82 66.72 46.21 66.69 45.5C66.65 44.81 66.08 44.28 65.4 44.28Z" fill="#000000" fill-opacity="1.000000" fill-rule="nonzero"/>
		<path d="M71.17 55.39C71.21 56.15 70.63 56.79 69.88 56.83C69.85 56.83 69.81 56.83 69.78 56.83C69.78 56.83 69.78 56.83 69.78 56.83C69.57 56.82 69.38 56.77 69.2 56.68C69.1 56.64 69.01 56.57 68.93 56.5C68.65 56.27 68.46 55.92 68.44 55.53C68.43 55.18 68.54 54.86 68.75 54.6C68.98 54.31 69.34 54.11 69.74 54.09C70.5 54.06 71.14 54.64 71.17 55.39Z" fill="#FFD200" fill-opacity="1.000000" fill-rule="nonzero"/>
		<path d="M69.81 56.91C69.8 56.91 69.79 56.91 69.78 56.9C69.56 56.9 69.36 56.85 69.17 56.75C69.06 56.7 68.97 56.64 68.88 56.56C68.57 56.31 68.39 55.93 68.37 55.53C68.35 55.18 68.46 54.83 68.68 54.56C68.94 54.23 69.32 54.04 69.74 54.02C70.13 54 70.49 54.13 70.78 54.39C71.07 54.65 71.23 55 71.25 55.39C71.27 55.77 71.14 56.14 70.88 56.43C70.62 56.72 70.27 56.88 69.88 56.9C69.86 56.9 69.83 56.91 69.81 56.91ZM69.81 54.17C69.79 54.17 69.77 54.17 69.75 54.17C69.38 54.19 69.03 54.37 68.81 54.65C68.61 54.9 68.51 55.21 68.52 55.52C68.54 55.88 68.71 56.21 68.98 56.44C69.06 56.51 69.15 56.57 69.24 56.61C69.41 56.7 69.59 56.74 69.78 56.75C69.81 56.75 69.85 56.75 69.88 56.75C70.22 56.73 70.54 56.58 70.77 56.32C71 56.07 71.11 55.74 71.1 55.39L71.1 55.39C71.08 55.05 70.93 54.73 70.67 54.5C70.44 54.29 70.13 54.17 69.81 54.17Z" fill="#000000" fill-opacity="1.000000" fill-rule="nonzero"/>
		<path d="M64.07 60.77C64.11 61.53 63.53 62.17 62.78 62.2C62.74 62.21 62.71 62.21 62.68 62.21C62.67 62.21 62.67 62.21 62.67 62.21C62.47 62.2 62.27 62.15 62.1 62.06C62 62.02 61.91 61.95 61.82 61.88C61.54 61.65 61.36 61.3 61.34 60.91C61.32 60.56 61.44 60.23 61.64 59.98C61.87 59.69 62.23 59.49 62.64 59.47C63.39 59.44 64.03 60.02 64.07 60.77Z" fill="#FFD200" fill-opacity="1.000000" fill-rule="nonzero"/>
		<path d="M62.7 62.28C62.69 62.28 62.68 62.28 62.67 62.28C62.46 62.28 62.26 62.23 62.07 62.13C61.96 62.08 61.86 62.02 61.77 61.94C61.47 61.68 61.28 61.31 61.26 60.91C61.24 60.55 61.36 60.21 61.58 59.93C61.83 59.61 62.22 59.42 62.63 59.39C63.02 59.38 63.39 59.51 63.68 59.77C63.96 60.02 64.13 60.38 64.15 60.77L64.15 60.76C64.17 61.15 64.04 61.52 63.78 61.81C63.52 62.09 63.16 62.26 62.78 62.28C62.75 62.28 62.73 62.28 62.7 62.28ZM62.71 59.55C62.69 59.55 62.66 59.55 62.64 59.55C62.27 59.57 61.93 59.75 61.7 60.03C61.5 60.28 61.4 60.59 61.42 60.9C61.44 61.26 61.6 61.59 61.87 61.82C61.95 61.89 62.04 61.95 62.13 61.99C62.31 62.08 62.49 62.12 62.67 62.13C62.71 62.13 62.74 62.13 62.77 62.13C63.12 62.11 63.43 61.96 63.66 61.7C63.89 61.45 64.01 61.12 63.99 60.77L63.99 60.77C63.98 60.43 63.83 60.11 63.57 59.88C63.33 59.67 63.03 59.55 62.71 59.55Z" fill="#000000" fill-opacity="1.000000" fill-rule="nonzero"/>
		<path d="M61.94 68.03C57.36 67.37 52.57 66.54 47.59 65.5C40.5 64.03 33.91 62.32 27.85 60.51L31.06 59.32L22.29 57.78C23.64 57.57 25.61 57.44 26.75 57.11C23.86 56.47 20.5 55.51 16.88 54.05C12.59 52.32 9.02 50.33 6.21 48.5C7.71 48.12 9.58 47.48 11.58 46.36C12.76 45.7 13.77 45 14.6 44.34C12.16 44.59 9.71 44.83 7.25 45.08C9.78 43.78 12.57 42.17 15.49 40.16C15.52 40.14 15.55 40.12 15.57 40.1C15.73 39.99 15.88 39.89 16.04 39.78C16.16 39.69 16.28 39.61 16.4 39.53C16.67 39.33 16.94 39.14 17.21 38.94C20.35 36.66 23.01 34.35 25.22 32.21C23.24 31.98 21.25 31.74 19.27 31.51C21.87 30.27 24.67 28.79 27.59 27.01C28.25 26.61 28.88 26.22 29.5 25.82C29.68 25.7 29.86 25.58 30.04 25.47C30.05 25.46 30.05 25.46 30.06 25.45C30.34 25.27 30.61 25.09 30.88 24.91C31.77 24.31 32.63 23.71 33.46 23.12C33.53 23.07 33.6 23.02 33.67 22.97C33.88 22.82 34.08 22.67 34.28 22.52C34.32 22.5 34.35 22.47 34.38 22.45C35.28 21.78 36.14 21.13 36.95 20.48C35.05 20.2 33.15 19.93 31.25 19.66C33.95 18.8 36.95 17.66 40.14 16.11C42.17 15.12 44.01 14.09 45.66 13.07C44.3 12.94 42.94 12.82 41.58 12.69C43.49 12.09 45.5 11.39 47.6 10.54C48.37 10.23 49.12 9.91 49.85 9.59L49.85 9.59C52.3 8.52 54.54 7.39 56.55 6.27C56.49 6.36 55.04 8.48 54.46 13.1C54.21 15.11 54.12 17.59 54.38 20.58C53.69 19.17 52.99 17.77 52.3 16.37C52.63 18.65 53.14 21.23 53.94 24.01C53.94 24.03 53.95 24.05 53.96 24.07C54 24.23 54.05 24.4 54.1 24.56L54.1 24.56C54.11 24.59 54.12 24.62 54.12 24.65C54.21 24.94 54.3 25.23 54.4 25.52C55.36 28.54 56.44 30.81 57.52 33.01C56.33 31.56 55.16 30.45 53.96 29C54.37 31.38 54.92 33.94 55.66 36.64C56.73 40.52 57.98 43.97 59.25 46.97C57.84 45.61 56.44 44.25 55.03 42.88C55.18 43.98 55.38 45.13 55.63 46.33C55.73 46.83 55.84 47.34 55.96 47.85C55.99 48.01 56.03 48.17 56.07 48.33C56.07 48.36 56.08 48.38 56.09 48.41C56.14 48.65 56.2 48.89 56.26 49.14C56.27 49.14 56.27 49.15 56.27 49.15C56.42 49.77 56.59 50.39 56.76 51.03C57.13 52.35 57.53 53.6 57.95 54.79C57.96 54.83 57.98 54.87 57.99 54.91C58.05 55.09 58.12 55.27 58.18 55.45C58.24 55.6 58.29 55.75 58.35 55.9C58.88 57.36 59.44 58.7 59.99 59.93C58.63 58.88 57.27 57.83 55.91 56.77C56.35 58.4 57.06 60.41 58.21 62.59C59.43 64.9 60.79 66.71 61.94 68.03Z" fill="#006658" fill-opacity="1.000000" fill-rule="nonzero"/>
		<path d="M62.14 68.14L61.93 68.11C57.15 67.41 52.32 66.56 47.57 65.58C40.91 64.19 34.27 62.51 27.83 60.59L27.6 60.52L30.77 59.35L21.82 57.78L22.28 57.7C22.74 57.63 23.26 57.57 23.81 57.51C24.74 57.4 25.69 57.29 26.42 57.11C23.17 56.38 19.96 55.37 16.86 54.12C13.13 52.63 9.54 50.76 6.17 48.57L6.02 48.47L6.19 48.43C8.06 47.95 9.86 47.23 11.54 46.3C12.52 45.75 13.46 45.13 14.34 44.45L14.23 44.46C11.91 44.69 9.59 44.92 7.26 45.16L6.85 45.2L7.22 45.01C10.07 43.54 12.84 41.89 15.45 40.09L15.53 40.04C15.68 39.93 15.84 39.82 16 39.71C16.12 39.63 16.23 39.55 16.35 39.46C16.62 39.27 16.89 39.08 17.16 38.88C19.93 36.86 22.58 34.64 25.05 32.27L18.99 31.55L19.23 31.44C22.07 30.09 24.87 28.58 27.55 26.94C28.27 26.51 28.89 26.12 29.46 25.75C29.64 25.63 29.82 25.52 30 25.4C30.01 25.39 30.02 25.39 30.02 25.39C30.29 25.21 30.57 25.03 30.84 24.85C31.73 24.25 32.6 23.64 33.41 23.06C33.45 23.03 33.49 23.01 33.52 22.98C33.56 22.96 33.59 22.93 33.63 22.9C33.83 22.75 34.03 22.61 34.23 22.46L34.34 22.38C35.17 21.77 35.98 21.15 36.76 20.53L36 20.42C34.42 20.19 32.83 19.96 31.24 19.73L30.9 19.68L31.23 19.58C34.27 18.62 37.26 17.43 40.11 16.04C41.93 15.15 43.71 14.17 45.42 13.12L41.18 12.73L41.55 12.62C43.58 11.98 45.61 11.26 47.57 10.47C48.24 10.2 48.94 9.9 49.77 9.54L49.82 9.52C52.1 8.52 54.35 7.4 56.51 6.2L56.8 6.05L56.62 6.32C56.46 6.54 55.1 8.64 54.54 13.11C54.25 15.38 54.22 17.89 54.46 20.57L54.49 20.98L54.31 20.61C53.69 19.36 53.07 18.1 52.45 16.85C52.82 19.27 53.34 21.67 54.01 23.99C54.02 24.01 54.02 24.03 54.03 24.04C54.08 24.21 54.13 24.38 54.18 24.54L54.2 24.62C54.28 24.89 54.36 25.14 54.44 25.4L54.47 25.5C55.41 28.46 56.49 30.72 57.59 32.98L57.89 33.58L57.46 33.06C56.87 32.34 56.27 31.69 55.69 31.07C55.17 30.5 54.63 29.92 54.09 29.28C54.52 31.74 55.08 34.21 55.74 36.62C56.7 40.13 57.91 43.61 59.32 46.94L59.47 47.3L55.14 43.1C55.29 44.16 55.48 45.24 55.7 46.32C55.81 46.86 55.92 47.36 56.03 47.83C56.06 47.96 56.09 48.09 56.12 48.22L56.14 48.31C56.15 48.33 56.15 48.34 56.15 48.35C56.15 48.37 56.16 48.38 56.16 48.4L56.2 48.55C56.24 48.74 56.29 48.93 56.34 49.12L56.34 49.12C56.34 49.13 56.35 49.14 56.35 49.15C56.5 49.75 56.66 50.38 56.84 51.01C57.19 52.27 57.59 53.53 58.02 54.77C58.03 54.79 58.04 54.8 58.04 54.82C58.05 54.84 58.06 54.86 58.06 54.88C58.13 55.06 58.19 55.24 58.25 55.42C58.31 55.57 58.36 55.72 58.42 55.87C58.93 57.25 59.48 58.6 60.06 59.9L60.19 60.19L59.95 60C58.64 58.99 57.34 57.99 56.05 56.98C56.59 58.9 57.34 60.78 58.28 62.55C59.3 64.5 60.56 66.32 62 67.98L62.14 68.14ZM28.1 60.5C34.46 62.4 41.02 64.06 47.6 65.42C52.28 66.39 57.03 67.23 61.74 67.92C60.35 66.3 59.14 64.52 58.14 62.63C57.16 60.77 56.38 58.81 55.83 56.79L55.77 56.57L55.96 56.71C57.23 57.7 58.51 58.69 59.79 59.68C59.25 58.47 58.74 57.21 58.27 55.93C58.22 55.78 58.16 55.63 58.11 55.47C58.04 55.3 57.98 55.12 57.92 54.93C57.91 54.91 57.9 54.89 57.9 54.88C57.89 54.85 57.88 54.83 57.88 54.81C57.44 53.58 57.04 52.32 56.69 51.05C56.51 50.42 56.34 49.79 56.19 49.17C56.19 49.17 56.19 49.16 56.19 49.15C56.14 48.96 56.09 48.77 56.05 48.59L56.01 48.43C56.01 48.41 56 48.4 56 48.38C56 48.37 55.99 48.36 55.99 48.34L55.97 48.26C55.94 48.13 55.91 48 55.88 47.87C55.77 47.39 55.66 46.9 55.55 46.35C55.32 45.19 55.11 44.03 54.95 42.89L54.92 42.67L59.03 46.65C57.68 43.42 56.52 40.06 55.59 36.66C54.9 34.15 54.33 31.58 53.88 29.01L53.83 28.72L54.02 28.95C54.62 29.68 55.22 30.33 55.81 30.96C56.26 31.45 56.72 31.94 57.18 32.48C56.16 30.4 55.19 28.27 54.32 25.54L54.29 25.45C54.21 25.19 54.13 24.93 54.05 24.67L54.02 24.57C53.98 24.42 53.93 24.25 53.88 24.09C53.87 24.08 53.87 24.05 53.86 24.03C53.15 21.55 52.59 18.97 52.22 16.38L52.15 15.9L52.37 16.33C53 17.61 53.64 18.89 54.27 20.17C54.07 17.64 54.11 15.26 54.38 13.09C54.86 9.31 55.91 7.2 56.33 6.49C54.26 7.62 52.11 8.68 49.93 9.64L49.93 9.64L49.88 9.67C49.02 10.04 48.31 10.34 47.63 10.61C45.78 11.36 43.88 12.04 41.97 12.65L45.9 13.01L45.71 13.14C43.93 14.23 42.07 15.25 40.17 16.18C37.42 17.52 34.54 18.68 31.6 19.63C33.08 19.84 34.55 20.05 36.03 20.27L37.14 20.43L36.99 20.54C36.17 21.2 35.31 21.86 34.43 22.51L34.33 22.59C34.13 22.73 33.93 22.88 33.72 23.03C33.68 23.06 33.65 23.08 33.61 23.11C33.58 23.13 33.54 23.16 33.51 23.19C32.69 23.77 31.82 24.38 30.92 24.98C30.65 25.16 30.38 25.34 30.1 25.52C30.09 25.53 30.09 25.53 30.08 25.53C29.91 25.65 29.72 25.77 29.54 25.88C28.97 26.25 28.35 26.64 27.64 27.08C25.02 28.67 22.3 30.15 19.55 31.46L25.39 32.16L25.27 32.27C22.77 34.69 20.07 36.95 17.26 39.01C16.98 39.2 16.71 39.4 16.44 39.59C16.32 39.68 16.21 39.76 16.09 39.84C15.93 39.95 15.77 40.06 15.62 40.17L15.54 40.22C13.03 41.95 10.38 43.54 7.65 44.96C9.84 44.74 12.03 44.52 14.22 44.3L14.86 44.24L14.65 44.4C13.7 45.16 12.68 45.84 11.62 46.43C9.98 47.35 8.22 48.05 6.4 48.53C9.72 50.68 13.26 52.51 16.91 53.98C20.11 55.27 23.42 56.29 26.76 57.03L27.06 57.1L26.77 57.18C26.01 57.41 24.9 57.54 23.83 57.66C23.46 57.7 23.12 57.74 22.79 57.79L31.36 59.3L28.1 60.5Z" fill="#000000" fill-opacity="1.000000" fill-rule="nonzero"/>
		<path d="M44.76 20.78C44.69 20.78 44.62 20.77 44.56 20.74C44.13 20.5 44.26 19.67 44.37 19.21C44.04 19.53 43.41 20.02 42.92 19.69C42.83 19.63 42.77 19.53 42.75 19.4C42.67 18.74 43.85 17.4 43.9 17.35L44.01 17.45C43.69 17.82 42.85 18.89 42.91 19.38C42.92 19.46 42.95 19.52 43.01 19.56C43.57 19.95 44.46 18.89 44.47 18.87L44.73 18.56L44.6 18.95C44.48 19.33 44.24 20.38 44.63 20.6C45.03 20.82 46.14 19.87 46.53 19.49L46.64 19.6C46.5 19.73 45.4 20.78 44.76 20.78Z" fill="#000000" fill-opacity="1.000000" fill-rule="nonzero"/>
		<path d="M48.83 31.29C48.79 31.29 48.74 31.28 48.7 31.27C48.24 31.1 48.24 30.26 48.28 29.79C48 30.15 47.46 30.74 46.93 30.48C46.82 30.43 46.75 30.34 46.71 30.22C46.53 29.58 47.5 28.08 47.54 28.02L47.67 28.1C47.4 28.52 46.73 29.7 46.86 30.18C46.89 30.26 46.93 30.31 46.99 30.34C47.6 30.63 48.32 29.45 48.33 29.44L48.54 29.1L48.47 29.49C48.41 29.89 48.33 30.97 48.75 31.12C49.18 31.28 50.13 30.18 50.46 29.74L50.58 29.84C50.46 29.99 49.46 31.29 48.83 31.29Z" fill="#000000" fill-opacity="1.000000" fill-rule="nonzero"/>
		<path d="M47.65 51.52C47.64 51.52 47.64 51.52 47.64 51.52C47.15 51.51 46.88 50.72 46.76 50.26C46.62 50.7 46.3 51.43 45.71 51.37C45.59 51.35 45.5 51.29 45.42 51.19C45.04 50.64 45.45 48.91 45.46 48.84L45.62 48.87C45.5 49.35 45.26 50.69 45.55 51.1C45.6 51.17 45.65 51.2 45.73 51.21C46.39 51.29 46.68 49.93 46.69 49.92L46.77 49.52L46.84 49.92C46.91 50.32 47.2 51.35 47.64 51.36C47.64 51.36 47.65 51.36 47.65 51.36C48.1 51.36 48.63 50.01 48.79 49.49L48.94 49.54C48.88 49.74 48.29 51.52 47.65 51.52Z" fill="#000000" fill-opacity="1.000000" fill-rule="nonzero"/>
		<path d="M22.98 42.08C22.93 42.08 22.88 42.07 22.84 42.05C22.38 41.88 22.4 41.04 22.45 40.56C22.17 40.92 21.61 41.5 21.09 41.23C20.98 41.18 20.91 41.09 20.88 40.96C20.71 40.32 21.71 38.84 21.75 38.78L21.88 38.87C21.6 39.28 20.91 40.44 21.03 40.93C21.05 41 21.09 41.06 21.16 41.09C21.76 41.4 22.5 40.23 22.51 40.22L22.73 39.88L22.65 40.28C22.58 40.67 22.48 41.75 22.9 41.91C23.32 42.07 24.29 41 24.63 40.57L24.76 40.66C24.63 40.82 23.61 42.08 22.98 42.08Z" fill="#000000" fill-opacity="1.000000" fill-rule="nonzero"/>
		<path d="M32.58 58.11C32.53 58.11 32.48 58.1 32.44 58.09C31.98 57.91 32 57.07 32.05 56.6C31.77 56.96 31.21 57.53 30.68 57.26C30.58 57.21 30.51 57.12 30.48 57C30.31 56.35 31.31 54.87 31.35 54.81L31.48 54.9C31.2 55.31 30.5 56.48 30.63 56.96C30.65 57.04 30.69 57.09 30.75 57.12C31.35 57.43 32.1 56.26 32.11 56.25L32.32 55.91L32.25 56.31C32.18 56.71 32.08 57.78 32.49 57.94C32.91 58.11 33.89 57.03 34.23 56.6L34.35 56.7C34.23 56.85 33.21 58.11 32.58 58.11Z" fill="#000000" fill-opacity="1.000000" fill-rule="nonzero"/>
		<path d="M51.45 62.56C51.45 62.56 51.45 62.56 51.45 62.56C50.96 62.55 50.68 61.76 50.57 61.29C50.42 61.73 50.1 62.46 49.51 62.4C49.4 62.38 49.3 62.32 49.23 62.22C48.85 61.67 49.26 59.94 49.28 59.87L49.43 59.9C49.32 60.38 49.07 61.72 49.36 62.13C49.4 62.2 49.46 62.23 49.53 62.24C50.2 62.32 50.5 60.97 50.5 60.95L50.58 60.56L50.65 60.96C50.72 61.35 51 62.39 51.45 62.4C51.45 62.4 51.45 62.4 51.45 62.4C51.9 62.4 52.44 61.06 52.61 60.54L52.76 60.58C52.69 60.79 52.1 62.56 51.45 62.56Z" fill="#000000" fill-opacity="1.000000" fill-rule="nonzero"/>
		<path d="M58.97 5.3L60.54 0.7L56.64 3.54L52.68 0.41L54.7 5.01L49.97 7.8L54.21 7.52C52.84 8.22 51.39 8.91 49.85 9.59L49.85 9.59C50.2 10.18 50.75 10.94 51.59 11.63C52.64 12.5 53.72 12.9 54.46 13.1C54.73 10.97 55.18 9.38 55.6 8.26L56.16 12.66L57.86 7.71L62.69 8.28L58.97 5.3Z" fill="#FFD200" fill-opacity="1.000000" fill-rule="nonzero"/>
		<path d="M54.53 13.2L54.44 13.18C53.36 12.89 52.39 12.39 51.54 11.69C50.84 11.12 50.25 10.43 49.78 9.63L49.77 9.62L49.77 9.54L49.82 9.52C51.17 8.93 52.52 8.29 53.84 7.62L49.64 7.9L54.6 4.98L52.48 0.15L56.64 3.44L60.7 0.5L59.06 5.27L62.95 8.39L57.92 7.79L56.12 13L55.56 8.59C55.09 9.93 54.75 11.45 54.54 13.11L54.53 13.2ZM49.96 9.63C50.41 10.37 50.97 11.03 51.64 11.57C52.45 12.24 53.37 12.72 54.39 13C54.62 11.24 55 9.63 55.53 8.24L55.64 7.94L56.19 12.32L57.81 7.62L62.43 8.17L58.88 5.32L60.39 0.91L56.64 3.64L52.88 0.66L54.8 5.04L50.29 7.7L54.59 7.42L54.25 7.59C52.85 8.31 51.4 8.99 49.96 9.63Z" fill="#000000" fill-opacity="1.000000" fill-rule="nonzero"/>
		<path d="M54.12 24.65C53.34 24.88 52.55 25.08 51.74 25.24C51.3 25.34 50.86 25.41 50.41 25.48C50.29 25.5 50.17 25.52 50.05 25.53C46.96 25.95 43.77 25.75 40.72 25.14C39.27 24.85 37.8 24.54 36.38 24.1C35.45 23.81 34.55 23.42 33.67 22.97C33.88 22.82 34.08 22.67 34.28 22.52C35.21 22.98 36.17 23.36 37.18 23.64C38.07 23.88 38.97 24.11 39.87 24.3C40.31 24.39 40.74 24.48 41.18 24.55C41.18 24.55 41.18 24.55 41.18 24.55C42.81 24.85 44.45 25.03 46.09 25.07C48.76 25.14 51.39 24.76 53.94 24.01C53.94 24.03 53.95 24.05 53.96 24.07C54 24.23 54.05 24.4 54.1 24.56L54.1 24.56C54.11 24.59 54.12 24.62 54.12 24.65Z" fill="#000000" fill-opacity="1.000000" fill-rule="nonzero"/>
		<path d="M42.12 23.19C42.15 23.94 41.57 24.59 40.82 24.62C40.06 24.66 39.42 24.08 39.38 23.33C39.35 22.57 39.93 21.93 40.68 21.89C41.44 21.85 42.08 22.44 42.12 23.19Z" fill="#FFD200" fill-opacity="1.000000" fill-rule="nonzero"/>
		<path d="M40.75 24.7C40.39 24.7 40.05 24.57 39.78 24.33C39.49 24.07 39.32 23.72 39.31 23.33C39.29 22.94 39.42 22.57 39.68 22.29C39.94 22 40.29 21.83 40.68 21.81C41.47 21.77 42.15 22.39 42.19 23.19C42.23 23.98 41.62 24.66 40.82 24.7C40.8 24.7 40.77 24.7 40.75 24.7ZM40.75 21.97C40.73 21.97 40.71 21.97 40.68 21.97C40.34 21.99 40.02 22.14 39.79 22.39C39.56 22.65 39.44 22.98 39.46 23.32C39.48 23.67 39.63 23.98 39.88 24.21C40.14 24.45 40.47 24.56 40.81 24.55C41.52 24.51 42.07 23.9 42.04 23.19C42 22.51 41.43 21.97 40.75 21.97Z" fill="#000000" fill-opacity="1.000000" fill-rule="nonzero"/>
		<path d="M52.65 26.46C52.69 27.21 52.11 27.86 51.35 27.89C50.6 27.93 49.96 27.35 49.92 26.6C49.88 25.84 50.46 25.2 51.22 25.16C51.97 25.12 52.61 25.71 52.65 26.46Z" fill="#FFD200" fill-opacity="1.000000" fill-rule="nonzero"/>
		<path d="M51.28 27.98C50.52 27.98 49.88 27.37 49.84 26.6C49.8 25.81 50.42 25.12 51.21 25.08C52.01 25.04 52.69 25.66 52.73 26.46C52.77 27.25 52.15 27.93 51.36 27.97C51.33 27.97 51.31 27.98 51.28 27.98ZM51.29 25.24C51.26 25.24 51.24 25.24 51.22 25.24C50.51 25.28 49.96 25.88 50 26.59C50.03 27.3 50.64 27.85 51.35 27.82C52.06 27.78 52.61 27.18 52.57 26.46C52.54 25.78 51.97 25.24 51.29 25.24Z" fill="#000000" fill-opacity="1.000000" fill-rule="nonzero"/>
		<path d="M58.18 55.45C55.16 55.56 52.14 55.57 49.13 55.41C46.22 55.26 43.32 54.91 40.48 54.3C40.06 54.21 39.64 54.12 39.22 54.01C39.18 54 39.15 54 39.11 53.98C35.97 53.2 32.95 52.05 30.01 50.69C27.05 49.31 24.18 47.61 21.53 45.71C21.3 45.55 21.08 45.39 20.86 45.22C20.58 45.01 20.3 44.8 20.03 44.58C20.03 44.58 20.03 44.58 20.02 44.58C19.25 43.96 18.5 43.31 17.79 42.62C16.99 41.83 16.24 41 15.49 40.16C15.52 40.14 15.55 40.12 15.57 40.1C15.73 39.99 15.88 39.89 16.04 39.78C16.87 40.71 17.72 41.64 18.63 42.49C19.97 43.73 21.41 44.86 22.93 45.87C24.74 47.09 26.62 48.22 28.56 49.22L28.57 49.22C28.77 49.33 28.98 49.44 29.18 49.54C32.8 51.36 36.63 52.78 40.59 53.64C44.03 54.39 47.53 54.73 51.04 54.84L51.04 54.84C51.63 54.86 52.22 54.87 52.81 54.87C52.81 54.87 52.81 54.87 52.81 54.87C54.53 54.89 56.24 54.85 57.95 54.79C57.96 54.83 57.98 54.87 57.99 54.91C58.05 55.09 58.12 55.27 58.18 55.45Z" fill="#000000" fill-opacity="1.000000" fill-rule="nonzero"/>
		<path d="M30.85 48.14C30.89 48.89 30.31 49.53 29.55 49.57C28.8 49.61 28.15 49.03 28.12 48.27C28.08 47.52 28.66 46.88 29.41 46.84C30.17 46.8 30.81 47.38 30.85 48.14Z" fill="#FFD200" fill-opacity="1.000000" fill-rule="nonzero"/>
		<path d="M29.48 49.65C28.72 49.65 28.08 49.05 28.04 48.28C28.02 47.89 28.15 47.52 28.41 47.23C28.67 46.95 29.03 46.78 29.41 46.76C30.2 46.72 30.89 47.34 30.93 48.13C30.97 48.93 30.35 49.61 29.56 49.65C29.53 49.65 29.51 49.65 29.48 49.65ZM29.48 46.91C29.46 46.91 29.44 46.92 29.42 46.92C29.07 46.93 28.76 47.08 28.53 47.34C28.3 47.6 28.18 47.92 28.19 48.27C28.23 48.98 28.84 49.53 29.55 49.49C30.26 49.46 30.81 48.85 30.77 48.14C30.74 47.45 30.17 46.91 29.48 46.91Z" fill="#000000" fill-opacity="1.000000" fill-rule="nonzero"/>
		<path d="M40.9 55.22C40.94 55.97 40.35 56.61 39.6 56.65C38.85 56.69 38.2 56.11 38.17 55.35C38.13 54.6 38.71 53.96 39.46 53.92C40.22 53.88 40.86 54.46 40.9 55.22Z" fill="#FFD200" fill-opacity="1.000000" fill-rule="nonzero"/>
		<path d="M39.53 56.73C38.77 56.73 38.13 56.13 38.09 55.36C38.05 54.56 38.66 53.88 39.46 53.84C40.25 53.8 40.94 54.42 40.98 55.21C41.02 56.01 40.4 56.69 39.6 56.73C39.58 56.73 39.55 56.73 39.53 56.73ZM39.53 54C39.51 54 39.49 54 39.47 54C38.76 54.03 38.21 54.64 38.24 55.35C38.28 56.06 38.89 56.61 39.6 56.57C40.31 56.54 40.85 55.93 40.82 55.22C40.79 54.53 40.21 54 39.53 54Z" fill="#000000" fill-opacity="1.000000" fill-rule="nonzero"/>
		<path d="M53.31 53.74C53.35 54.5 52.77 55.14 52.02 55.18C51.26 55.21 50.62 54.63 50.58 53.88C50.54 53.12 51.12 52.48 51.88 52.45C52.63 52.41 53.27 52.99 53.31 53.74Z" fill="#FFD200" fill-opacity="1.000000" fill-rule="nonzero"/>
		<path d="M51.95 55.26C51.59 55.26 51.24 55.13 50.98 54.88C50.69 54.62 50.52 54.27 50.5 53.88C50.46 53.09 51.08 52.41 51.87 52.37C52.67 52.33 53.35 52.94 53.39 53.74C53.43 54.54 52.82 55.22 52.02 55.25C51.99 55.26 51.97 55.26 51.95 55.26ZM51.95 52.52C51.93 52.52 51.9 52.52 51.88 52.52C51.17 52.56 50.62 53.16 50.66 53.88C50.68 54.22 50.83 54.54 51.08 54.77C51.34 55 51.67 55.12 52.01 55.1C52.72 55.06 53.27 54.46 53.23 53.75C53.2 53.06 52.63 52.52 51.95 52.52Z" fill="#000000" fill-opacity="1.000000" fill-rule="nonzero"/>
		<path d="M21.04 45.83C21.08 46.59 20.5 47.23 19.74 47.27C18.99 47.3 18.34 46.72 18.31 45.97C18.27 45.21 18.85 44.57 19.6 44.53C20.36 44.5 21 45.08 21.04 45.83Z" fill="#FFD200" fill-opacity="1.000000" fill-rule="nonzero"/>
		<path d="M19.67 47.35C18.91 47.35 18.27 46.74 18.23 45.97C18.19 45.18 18.8 44.5 19.6 44.46C20.4 44.41 21.08 45.03 21.12 45.83C21.14 46.21 21 46.58 20.75 46.87C20.49 47.16 20.13 47.32 19.75 47.34C19.72 47.35 19.7 47.35 19.67 47.35ZM19.67 44.61C19.65 44.61 19.63 44.61 19.61 44.61C18.9 44.65 18.35 45.25 18.39 45.96C18.42 46.67 19.03 47.23 19.74 47.19C20.08 47.17 20.4 47.02 20.63 46.77C20.86 46.51 20.98 46.18 20.96 45.84C20.93 45.15 20.36 44.61 19.67 44.61Z" fill="#000000" fill-opacity="1.000000" fill-rule="nonzero"/>
		<path d="M56.08 48.41C56.14 48.65 56.2 48.89 56.26 49.14C54.81 48.6 53.42 47.94 52.06 47.21C50.7 46.47 49.37 45.69 48.07 44.84C47.49 44.47 46.92 44.08 46.36 43.68C43.65 41.78 41.12 39.64 38.81 37.25C35.39 33.71 32.42 29.77 29.5 25.82C29.68 25.7 29.86 25.59 30.04 25.47C30.05 25.46 30.05 25.46 30.06 25.46C31.51 27.41 32.97 29.36 34.5 31.26C36.23 33.4 38 35.52 39.97 37.47C41.87 39.36 43.93 41.12 46.1 42.71C48.33 44.35 50.74 45.79 53.21 47.06C54.06 47.5 54.93 47.88 55.81 48.23C55.89 48.27 55.98 48.3 56.07 48.33C56.27 48.41 56.46 48.48 56.66 48.56C56.45 48.55 56.26 48.5 56.08 48.41Z" fill="#000000" fill-opacity="1.000000" fill-rule="nonzero"/>
		<path d="M48.08 44.94C48.12 45.69 47.54 46.33 46.78 46.37C46.03 46.41 45.39 45.83 45.35 45.07C45.31 44.32 45.89 43.68 46.65 43.64C47.4 43.6 48.04 44.18 48.08 44.94Z" fill="#FFD200" fill-opacity="1.000000" fill-rule="nonzero"/>
		<path d="M46.71 46.45C46.36 46.45 46.01 46.32 45.75 46.08C45.46 45.82 45.29 45.46 45.27 45.08C45.23 44.28 45.85 43.6 46.64 43.56C47.03 43.54 47.4 43.67 47.69 43.93C47.97 44.19 48.14 44.55 48.16 44.93C48.2 45.73 47.58 46.41 46.79 46.45C46.76 46.45 46.74 46.45 46.71 46.45ZM46.72 43.72C46.7 43.72 46.67 43.72 46.65 43.72C45.94 43.75 45.39 44.36 45.43 45.07C45.45 45.41 45.6 45.73 45.85 45.96C46.11 46.19 46.44 46.31 46.78 46.29C47.49 46.26 48.04 45.65 48 44.94C47.99 44.6 47.84 44.28 47.58 44.05C47.34 43.83 47.04 43.72 46.72 43.72Z" fill="#000000" fill-opacity="1.000000" fill-rule="nonzero"/>
		<path d="M58.06 47.12C58.09 47.87 57.51 48.52 56.76 48.55C56.73 48.55 56.69 48.56 56.66 48.55C56.66 48.55 56.66 48.55 56.66 48.55C56.45 48.55 56.26 48.5 56.08 48.41C55.99 48.36 55.89 48.3 55.81 48.23C55.53 48 55.34 47.65 55.32 47.25C55.31 46.91 55.42 46.58 55.63 46.33C55.86 46.04 56.22 45.84 56.62 45.82C57.38 45.78 58.02 46.36 58.06 47.12Z" fill="#FFD200" fill-opacity="1.000000" fill-rule="nonzero"/>
		<path d="M56.69 48.63C56.68 48.63 56.67 48.63 56.66 48.63C56.44 48.63 56.24 48.58 56.05 48.48C55.95 48.43 55.85 48.37 55.76 48.29C55.45 48.03 55.27 47.66 55.25 47.26C55.23 46.9 55.34 46.56 55.57 46.28C55.82 45.96 56.2 45.77 56.62 45.74C57.42 45.7 58.09 46.32 58.13 47.11C58.15 47.5 58.02 47.87 57.76 48.16C57.5 48.44 57.15 48.61 56.76 48.63C56.74 48.63 56.71 48.63 56.69 48.63ZM56.69 45.9C56.67 45.9 56.65 45.9 56.63 45.9C56.26 45.92 55.91 46.09 55.69 46.38C55.49 46.63 55.39 46.93 55.4 47.25C55.42 47.61 55.59 47.94 55.86 48.17C55.94 48.24 56.03 48.3 56.12 48.34C56.29 48.43 56.47 48.47 56.66 48.48C56.7 48.48 56.73 48.48 56.76 48.48C57.1 48.46 57.42 48.31 57.65 48.05C57.88 47.8 57.99 47.47 57.98 47.12C57.94 46.43 57.37 45.9 56.69 45.9Z" fill="#000000" fill-opacity="1.000000" fill-rule="nonzero"/>
		<path d="M37.08 44.71C37.08 44.71 37.07 44.71 37.06 44.71C34.32 44.96 31.62 43.77 29.75 41.8C29.08 41.1 28.43 40.2 27.98 39.23C27.26 37.71 27.02 36.01 27.95 34.56C28.81 33.22 30.08 33.47 31.29 34.2C32.35 34.85 33.36 35.87 33.98 36.5C34.53 37.04 35.1 37.54 35.78 37.9C36.88 38.48 38.14 38.57 39.25 39.09C39.47 39.19 39.71 39.32 39.95 39.48C40.64 39.95 41.33 40.62 41.52 41.33C42.09 43.48 38.62 44.57 37.08 44.71Z" fill="#000000" fill-opacity="1.000000" fill-rule="nonzero"/>
		<path d="M36.35 44.82C33.93 44.82 31.49 43.74 29.69 41.85C28.96 41.08 28.33 40.16 27.9 39.26C27.31 38.01 26.83 36.17 27.88 34.52C28.64 33.34 29.8 33.21 31.33 34.14C32.4 34.79 33.43 35.83 34.04 36.45C34.48 36.89 35.09 37.45 35.82 37.83C36.39 38.13 37.03 38.3 37.64 38.47C38.19 38.62 38.76 38.77 39.28 39.02C39.54 39.13 39.78 39.27 39.99 39.42C40.39 39.69 41.36 40.41 41.6 41.31C41.74 41.86 41.65 42.37 41.32 42.84C40.47 44.05 38.28 44.68 37.1 44.79L37.08 44.79C36.84 44.81 36.59 44.82 36.35 44.82ZM37.05 44.64L37.08 44.71L37.07 44.63L37.08 44.63C38.32 44.52 40.41 43.86 41.19 42.75C41.49 42.32 41.58 41.85 41.45 41.35C41.22 40.5 40.29 39.81 39.91 39.55C39.69 39.4 39.46 39.27 39.22 39.16C38.7 38.92 38.14 38.77 37.6 38.62C36.98 38.45 36.34 38.28 35.75 37.97C35 37.58 34.38 37.01 33.93 36.56C33.32 35.94 32.31 34.92 31.25 34.27C29.78 33.38 28.73 33.49 28.01 34.6C27 36.19 27.47 37.98 28.05 39.19C28.46 40.08 29.09 40.99 29.81 41.75C31.75 43.79 34.45 44.87 37.05 44.64Z" fill="#000000" fill-opacity="1.000000" fill-rule="nonzero"/>
		<path d="M37.08 44.71C37.08 44.71 37.07 44.71 37.06 44.71C34.32 44.96 31.62 43.78 29.75 41.8C29.08 41.1 28.43 40.2 27.98 39.23C29.65 38.51 31.87 38.67 33.81 39.83C35.76 41 36.94 42.88 37.08 44.71Z" fill="#FF2A2A" fill-opacity="1.000000" fill-rule="nonzero"/>
		<path d="M36.35 44.82C33.93 44.82 31.49 43.74 29.69 41.85C28.96 41.08 28.33 40.16 27.9 39.26L27.87 39.19L27.94 39.16C29.7 38.4 31.96 38.63 33.85 39.77C35.74 40.9 37.01 42.79 37.16 44.7L37.17 44.77L37.08 44.79C36.84 44.81 36.59 44.82 36.35 44.82ZM28.08 39.27C28.5 40.13 29.11 41.01 29.81 41.75C31.73 43.78 34.42 44.86 37 44.64C36.82 42.81 35.59 41 33.76 39.9C31.95 38.81 29.78 38.57 28.08 39.27Z" fill="#000000" fill-opacity="1.000000" fill-rule="nonzero"/>
		<path d="M37.1 27.99L37.56 27.15L41.32 29.18L40.87 30.02L37.1 27.99Z" fill="#000000" fill-opacity="1.000000" fill-rule="evenodd"/>
		<path d="M40.9 30.12L37 28.02L37.52 27.04L41.42 29.15L40.9 30.12ZM37.21 27.96L40.83 29.91L41.21 29.21L37.59 27.25L37.21 27.96Z" fill="#000000" fill-opacity="1.000000" fill-rule="nonzero"/>
		<path d="M55.3 36.72C52.65 41.63 47.48 44.01 43.64 42.14C43.57 42.11 43.49 42.07 43.41 42.02C43.16 41.89 42.92 41.74 42.7 41.58L42.7 41.58C42.58 41.49 42.48 41.41 42.37 41.32C41.83 40.86 41.36 40.32 40.99 39.71C39.31 36.97 39.33 32.87 41.32 29.18L55.3 36.72Z" fill="#000000" fill-opacity="1.000000" fill-rule="nonzero"/>
		<path d="M46.49 42.87C45.49 42.87 44.52 42.66 43.61 42.21C43.52 42.17 43.45 42.13 43.37 42.09C43.13 41.96 42.89 41.81 42.65 41.64C42.53 41.55 42.42 41.46 42.32 41.38C41.78 40.92 41.3 40.37 40.92 39.75C39.18 36.91 39.31 32.74 41.25 29.14L41.29 29.07L55.4 36.68L55.37 36.75C53.31 40.57 49.79 42.87 46.49 42.87ZM41.35 29.28C39.47 32.82 39.35 36.89 41.05 39.66C41.43 40.28 41.89 40.81 42.42 41.26C42.52 41.34 42.63 41.43 42.74 41.51C42.97 41.68 43.21 41.83 43.45 41.96C43.52 42 43.59 42.03 43.67 42.07C45.52 42.97 47.72 42.91 49.88 41.9C52.04 40.9 53.92 39.07 55.19 36.75L41.35 29.28Z" fill="#000000" fill-opacity="1.000000" fill-rule="nonzero"/>
		<path d="M49.98 33.85C47.51 36.42 44.95 38.87 42.37 41.32C41.83 40.86 41.36 40.32 40.99 39.71C43.33 37.39 45.76 35.17 48.07 32.82L49.98 33.85Z" fill="#FFFFFF" fill-opacity="1.000000" fill-rule="nonzero"/>
		<path d="M42.37 41.42L42.32 41.38C41.78 40.92 41.3 40.37 40.92 39.75L40.89 39.69L40.93 39.65C41.92 38.68 42.94 37.7 43.92 36.76C45.27 35.46 46.67 34.12 48.01 32.76L48.05 32.72L50.11 33.83L50.04 33.9C47.62 36.43 45.16 38.78 42.43 41.38L42.37 41.42ZM41.09 39.72C41.44 40.29 41.87 40.79 42.37 41.21C45.05 38.67 47.47 36.35 49.86 33.87L48.08 32.91C46.75 34.26 45.37 35.59 44.03 36.87C43.06 37.8 42.06 38.76 41.09 39.72Z" fill="#000000" fill-opacity="1.000000" fill-rule="nonzero"/>
		<path d="M51.25 34.53C48.76 37.12 46.16 39.59 43.64 42.14C43.57 42.11 43.49 42.07 43.41 42.02C43.16 41.89 42.92 41.74 42.7 41.58C44.73 39.65 46.77 37.71 48.75 35.71C49.29 35.16 49.82 34.61 50.36 34.05L51.25 34.53Z" fill="#FFFFFF" fill-opacity="1.000000" fill-rule="nonzero"/>
		<path d="M43.66 42.24L43.61 42.21C43.52 42.17 43.45 42.13 43.37 42.09C43.13 41.96 42.89 41.81 42.65 41.64L42.58 41.58L42.64 41.52C44.82 39.46 46.77 37.59 48.69 35.65C49.28 35.05 49.81 34.51 50.3 34L50.34 33.95L51.37 34.51L51.3 34.58C49.87 36.08 48.37 37.56 46.93 38.98C45.86 40.03 44.77 41.12 43.7 42.2L43.66 42.24ZM42.82 41.57C43.02 41.71 43.23 41.84 43.45 41.96C43.51 41.99 43.57 42.02 43.63 42.05C44.68 40.98 45.77 39.91 46.82 38.87C48.24 37.47 49.71 36.02 51.12 34.55L50.37 34.15C49.89 34.65 49.38 35.18 48.8 35.76C46.9 37.68 44.97 39.53 42.82 41.57Z" fill="#000000" fill-opacity="1.000000" fill-rule="nonzero"/>
		<path d="M37.56 27.15C34.85 32.16 29.53 34.54 25.67 32.46C25.55 32.39 25.44 32.32 25.32 32.25C25.01 32.06 24.73 31.84 24.46 31.6C24.36 31.51 24.26 31.42 24.16 31.32C23.66 30.81 23.25 30.21 22.93 29.56C21.58 26.85 21.72 23.06 23.58 19.61L37.56 27.15Z" fill="#000000" fill-opacity="1.000000" fill-rule="nonzero"/>
		<path d="M28.71 33.29C27.64 33.29 26.59 33.04 25.63 32.53C25.52 32.47 25.41 32.4 25.28 32.32C24.97 32.13 24.68 31.91 24.41 31.66C24.3 31.57 24.2 31.47 24.1 31.37C23.61 30.87 23.19 30.27 22.86 29.6C21.45 26.76 21.7 22.92 23.51 19.57L23.55 19.5L37.66 27.12L37.62 27.18C35.57 30.99 32.01 33.29 28.71 33.29ZM23.61 19.72C21.86 23.01 21.62 26.76 23 29.53C23.32 30.19 23.73 30.77 24.22 31.26C24.31 31.36 24.41 31.46 24.51 31.55C24.77 31.78 25.06 32 25.36 32.19C25.49 32.27 25.6 32.33 25.71 32.39C29.51 34.44 34.76 32.1 37.45 27.18L23.61 19.72Z" fill="#000000" fill-opacity="1.000000" fill-rule="nonzero"/>
		<path d="M31.65 23.97C29.23 26.5 26.7 28.91 24.16 31.32C23.66 30.81 23.25 30.22 22.93 29.56C25.19 27.34 27.51 25.2 29.74 22.93L31.65 23.97Z" fill="#FFFFFF" fill-opacity="1.000000" fill-rule="nonzero"/>
		<path d="M24.16 31.43L24.11 31.37C23.61 30.87 23.19 30.27 22.86 29.6L22.83 29.54L22.87 29.51C23.76 28.63 24.68 27.75 25.57 26.9C26.93 25.59 28.34 24.25 29.68 22.88L29.72 22.83L31.78 23.95L31.71 24.02C29.26 26.58 26.66 29.06 24.22 31.37L24.16 31.43ZM23.02 29.58C23.33 30.19 23.72 30.74 24.16 31.21C26.57 28.93 29.12 26.5 31.53 23.99L29.75 23.03C28.42 24.39 27.03 25.72 25.68 27.01C24.8 27.85 23.9 28.71 23.02 29.58Z" fill="#000000" fill-opacity="1.000000" fill-rule="nonzero"/>
		<path d="M32.92 24.65C30.43 27.23 27.84 29.7 25.32 32.25C25.01 32.06 24.73 31.84 24.46 31.6C26.47 29.7 28.47 27.79 30.42 25.82C30.96 25.28 31.5 24.72 32.03 24.17L32.92 24.65Z" fill="#FFFFFF" fill-opacity="1.000000" fill-rule="nonzero"/>
		<path d="M25.33 32.35L25.28 32.32C24.97 32.13 24.68 31.9 24.41 31.66L24.35 31.61L24.41 31.55C26.33 29.72 28.37 27.78 30.36 25.77C30.95 25.18 31.48 24.63 31.97 24.11L32.01 24.07L33.04 24.63L32.97 24.7C31.54 26.2 30.04 27.67 28.59 29.1C27.54 30.15 26.44 31.23 25.38 32.31L25.33 32.35ZM24.58 31.6C24.8 31.8 25.05 31.99 25.31 32.15C26.36 31.09 27.44 30.02 28.48 28.99C29.91 27.59 31.38 26.13 32.79 24.67L32.04 24.26C31.56 24.77 31.04 25.3 30.47 25.88C28.5 27.87 26.48 29.79 24.58 31.6Z" fill="#000000" fill-opacity="1.000000" fill-rule="nonzero"/>
		<path d="M35.55 32.97C35 33.71 35.2 34.79 36 35.39C36.8 35.99 37.9 35.87 38.45 35.13C39.01 34.39 38.81 33.31 38 32.71C37.2 32.11 36.11 32.23 35.55 32.97Z" fill="#FFD200" fill-opacity="1.000000" fill-rule="nonzero"/>
		<path d="M37.13 35.85C36.73 35.85 36.31 35.72 35.96 35.45C35.55 35.15 35.28 34.72 35.19 34.25C35.1 33.77 35.21 33.3 35.49 32.92C35.77 32.55 36.19 32.31 36.68 32.26C37.16 32.21 37.65 32.35 38.05 32.65C38.89 33.27 39.09 34.41 38.52 35.18C38.19 35.62 37.67 35.85 37.13 35.85ZM36.87 32.41C36.81 32.41 36.75 32.41 36.69 32.41C36.25 32.46 35.87 32.67 35.62 33.01C35.36 33.36 35.27 33.78 35.35 34.22C35.43 34.66 35.68 35.05 36.05 35.33C36.81 35.9 37.86 35.79 38.39 35.09C38.92 34.38 38.72 33.34 37.96 32.77C37.64 32.53 37.26 32.41 36.87 32.41Z" fill="#000000" fill-opacity="1.000000" fill-rule="nonzero"/>
		<path d="M37.24 32.96C37.63 33.57 36.68 34.18 36.28 33.57C35.89 32.96 36.84 32.35 37.24 32.96Z" fill="#FFFFFF" fill-opacity="1.000000" fill-rule="nonzero"/>
		<path d="M33.01 0.44L34.59 0L36.89 8.12L35.31 8.57L33.01 0.44Z" fill="#009CF7" fill-opacity="1.000000" fill-rule="evenodd"/>
		<path d="M14.3 13.47L15.26 12.14L21.58 16.66L20.62 18L14.3 13.47Z" fill="#009CF7" fill-opacity="1.000000" fill-rule="evenodd"/>
		<path d="M22.63 4.77L24.06 3.95L28.6 11.8L27.17 12.62L22.63 4.77Z" fill="#009CF7" fill-opacity="1.000000" fill-rule="evenodd"/>
	</g>
</svg>
